<svg xmlns="http://www.w3.org/2000/svg" viewBox="0 0 960 680" font-family="'Georgia', 'Times New Roman', serif">

  <rect width="960" height="680" fill="#FFFFFF"/>

  <!-- Thin top rule -->
  <line x1="40" y1="20" x2="920" y2="20" stroke="#1a1a1a" stroke-width="0.5"/>

  <!-- Title block -->
  <text x="480" y="52" text-anchor="middle" fill="#1a1a1a" font-size="13" letter-spacing="6" font-weight="400" font-family="'Helvetica Neue', Helvetica, Arial, sans-serif">LEAN DAO FRAMEWORK</text>
  <text x="480" y="76" text-anchor="middle" fill="#1a1a1a" font-size="22" font-weight="400">System Architecture — Four-Layer Stack</text>
  <line x1="380" y1="88" x2="580" y2="88" stroke="#1a1a1a" stroke-width="0.5"/>

  <!-- ═══ LAYER 3: OVERSIGHT ═══ -->
  <rect x="50" y="115" width="860" height="95" rx="2" fill="none" stroke="#1a1a1a" stroke-width="1"/>
  <rect x="50" y="115" width="860" height="1" fill="#1a1a1a"/>

  <text x="70" y="140" fill="#1a1a1a" font-size="10" letter-spacing="3" font-family="'Helvetica Neue', Helvetica, Arial, sans-serif" font-weight="500">L3  OVERSIGHT</text>
  <text x="280" y="140" fill="#888" font-size="10" font-style="italic">Human-in-the-Loop — Strategic Direction &amp; Emergency Override</text>

  <rect x="70" y="155" width="160" height="38" rx="1" fill="#f7f7f7" stroke="#ccc" stroke-width="0.5"/>
  <text x="150" y="172" text-anchor="middle" fill="#333" font-size="9" font-family="'Helvetica Neue', sans-serif">DAO Council (5–9)</text>
  <text x="150" y="184" text-anchor="middle" fill="#999" font-size="7" font-family="'Helvetica Neue', sans-serif">Token-weighted votes</text>

  <rect x="245" y="155" width="160" height="38" rx="1" fill="#f7f7f7" stroke="#ccc" stroke-width="0.5"/>
  <text x="325" y="172" text-anchor="middle" fill="#333" font-size="9" font-family="'Helvetica Neue', sans-serif">Domain Experts</text>
  <text x="325" y="184" text-anchor="middle" fill="#999" font-size="7" font-family="'Helvetica Neue', sans-serif">On-demand bounties</text>

  <rect x="420" y="155" width="160" height="38" rx="1" fill="#f7f7f7" stroke="#ccc" stroke-width="0.5"/>
  <text x="500" y="172" text-anchor="middle" fill="#333" font-size="9" font-family="'Helvetica Neue', sans-serif">Auditors</text>
  <text x="500" y="184" text-anchor="middle" fill="#999" font-size="7" font-family="'Helvetica Neue', sans-serif">Quarterly rotation</text>

  <rect x="595" y="155" width="295" height="38" rx="1" fill="#f7f7f7" stroke="#1a1a1a" stroke-width="0.5"/>
  <text x="742" y="172" text-anchor="middle" fill="#1a1a1a" font-size="9" font-family="'Helvetica Neue', sans-serif">Emergency Override — 3/5 Multisig + Timelock</text>
  <text x="742" y="184" text-anchor="middle" fill="#999" font-size="7" font-family="'Helvetica Neue', sans-serif">EmergencyDAO.sol</text>

  <!-- Connector L3 → L1 -->
  <line x1="480" y1="210" x2="480" y2="235" stroke="#999" stroke-width="0.5" stroke-dasharray="3,2"/>
  <text x="495" y="226" fill="#aaa" font-size="7" font-family="'Helvetica Neue', sans-serif">veto / override</text>

  <!-- ═══ LAYER 1: ORCHESTRATION ═══ -->
  <rect x="50" y="240" width="860" height="115" rx="2" fill="none" stroke="#1a1a1a" stroke-width="1"/>
  <rect x="50" y="240" width="860" height="1" fill="#1a1a1a"/>

  <text x="70" y="265" fill="#1a1a1a" font-size="10" letter-spacing="3" font-family="'Helvetica Neue', Helvetica, Arial, sans-serif" font-weight="500">L1  ORCHESTRATION</text>
  <text x="310" y="265" fill="#888" font-size="10" font-style="italic">AI Orchestrator — Task Decomposition, Dispatch &amp; Monitoring</text>

  <rect x="70" y="280" width="150" height="55" rx="1" fill="#f7f7f7" stroke="#ccc" stroke-width="0.5"/>
  <text x="145" y="300" text-anchor="middle" fill="#333" font-size="9" font-family="'Helvetica Neue', sans-serif" font-weight="500">Task Decomposition</text>
  <text x="145" y="316" text-anchor="middle" fill="#999" font-size="7.5" font-family="'Helvetica Neue', sans-serif">Goals → atomic tasks</text>
  <text x="145" y="328" text-anchor="middle" fill="#999" font-size="7.5" font-family="'Helvetica Neue', sans-serif">Priority assignment</text>

  <rect x="235" y="280" width="150" height="55" rx="1" fill="#f7f7f7" stroke="#ccc" stroke-width="0.5"/>
  <text x="310" y="300" text-anchor="middle" fill="#333" font-size="9" font-family="'Helvetica Neue', sans-serif" font-weight="500">Agent Dispatch</text>
  <text x="310" y="316" text-anchor="middle" fill="#999" font-size="7.5" font-family="'Helvetica Neue', sans-serif">Capability matching</text>
  <text x="310" y="328" text-anchor="middle" fill="#999" font-size="7.5" font-family="'Helvetica Neue', sans-serif">Cost optimization</text>

  <rect x="400" y="280" width="150" height="55" rx="1" fill="#f7f7f7" stroke="#ccc" stroke-width="0.5"/>
  <text x="475" y="300" text-anchor="middle" fill="#333" font-size="9" font-family="'Helvetica Neue', sans-serif" font-weight="500">Resource Optimizer</text>
  <text x="475" y="316" text-anchor="middle" fill="#999" font-size="7.5" font-family="'Helvetica Neue', sans-serif">LP solver</text>
  <text x="475" y="328" text-anchor="middle" fill="#999" font-size="7.5" font-family="'Helvetica Neue', sans-serif">Load balancing</text>

  <rect x="565" y="280" width="150" height="55" rx="1" fill="#f7f7f7" stroke="#ccc" stroke-width="0.5"/>
  <text x="640" y="300" text-anchor="middle" fill="#333" font-size="9" font-family="'Helvetica Neue', sans-serif" font-weight="500">Market Signals</text>
  <text x="640" y="316" text-anchor="middle" fill="#999" font-size="7.5" font-family="'Helvetica Neue', sans-serif">24/7 external scan</text>
  <text x="640" y="328" text-anchor="middle" fill="#999" font-size="7.5" font-family="'Helvetica Neue', sans-serif">Anomaly detection</text>

  <rect x="730" y="280" width="160" height="55" rx="1" fill="#f7f7f7" stroke="#ccc" stroke-width="0.5"/>
  <text x="810" y="300" text-anchor="middle" fill="#333" font-size="9" font-family="'Helvetica Neue', sans-serif" font-weight="500">Performance Monitor</text>
  <text x="810" y="316" text-anchor="middle" fill="#999" font-size="7.5" font-family="'Helvetica Neue', sans-serif">Real-time KPI tracking</text>
  <text x="810" y="328" text-anchor="middle" fill="#999" font-size="7.5" font-family="'Helvetica Neue', sans-serif">Threshold alerts</text>

  <!-- Connectors L1 → L2 -->
  <line x1="310" y1="355" x2="250" y2="388" stroke="#999" stroke-width="0.5" stroke-dasharray="3,2"/>
  <text x="255" y="375" fill="#aaa" font-size="7" font-family="'Helvetica Neue', sans-serif">cognitive tasks</text>
  <line x1="640" y1="355" x2="700" y2="388" stroke="#999" stroke-width="0.5" stroke-dasharray="3,2"/>
  <text x="660" y="375" fill="#aaa" font-size="7" font-family="'Helvetica Neue', sans-serif">physical tasks</text>

  <!-- ═══ LAYER 2a: AI AGENTS ═══ -->
  <rect x="50" y="392" width="420" height="130" rx="2" fill="none" stroke="#1a1a1a" stroke-width="1"/>
  <rect x="50" y="392" width="420" height="1" fill="#1a1a1a"/>

  <text x="70" y="415" fill="#1a1a1a" font-size="10" letter-spacing="3" font-family="'Helvetica Neue', Helvetica, Arial, sans-serif" font-weight="500">L2a  AI AGENTS</text>
  <text x="260" y="415" fill="#888" font-size="9" font-style="italic">Software Workers — Elastic: 0 → 1,000 in seconds</text>

  <rect x="70" y="430" width="88" height="30" rx="1" fill="#f0f0f0" stroke="#bbb" stroke-width="0.5"/>
  <text x="114" y="449" text-anchor="middle" fill="#333" font-size="8" font-family="'Helvetica Neue', sans-serif">Analyst</text>

  <rect x="168" y="430" width="88" height="30" rx="1" fill="#f0f0f0" stroke="#bbb" stroke-width="0.5"/>
  <text x="212" y="449" text-anchor="middle" fill="#333" font-size="8" font-family="'Helvetica Neue', sans-serif">Developer</text>

  <rect x="266" y="430" width="88" height="30" rx="1" fill="#f0f0f0" stroke="#bbb" stroke-width="0.5"/>
  <text x="310" y="449" text-anchor="middle" fill="#333" font-size="8" font-family="'Helvetica Neue', sans-serif">Trading</text>

  <rect x="364" y="430" width="88" height="30" rx="1" fill="#f0f0f0" stroke="#bbb" stroke-width="0.5"/>
  <text x="408" y="449" text-anchor="middle" fill="#333" font-size="8" font-family="'Helvetica Neue', sans-serif">Compliance</text>

  <rect x="70" y="470" width="186" height="30" rx="1" fill="#fafafa" stroke="#ddd" stroke-width="0.5"/>
  <text x="163" y="489" text-anchor="middle" fill="#888" font-size="7.5" font-family="'Helvetica Neue', sans-serif">Coordinator · Content · Sales</text>

  <rect x="266" y="470" width="186" height="30" rx="1" fill="#fafafa" stroke="#ddd" stroke-width="0.5"/>
  <text x="359" y="489" text-anchor="middle" fill="#888" font-size="7.5" font-family="'Helvetica Neue', sans-serif">Capability Registry + Reputation</text>

  <!-- ═══ LAYER 2b: HUMANOID FLEET ═══ -->
  <rect x="490" y="392" width="420" height="130" rx="2" fill="none" stroke="#1a1a1a" stroke-width="1"/>
  <rect x="490" y="392" width="420" height="1" fill="#1a1a1a"/>

  <text x="510" y="415" fill="#1a1a1a" font-size="10" letter-spacing="3" font-family="'Helvetica Neue', Helvetica, Arial, sans-serif" font-weight="500">L2b  HUMANOID FLEET</text>
  <text x="720" y="415" fill="#888" font-size="9" font-style="italic">Physical Workers — Fleet Lease Model</text>

  <rect x="510" y="430" width="92" height="30" rx="1" fill="#f0f0f0" stroke="#bbb" stroke-width="0.5"/>
  <text x="556" y="449" text-anchor="middle" fill="#333" font-size="8" font-family="'Helvetica Neue', sans-serif">Operations</text>

  <rect x="612" y="430" width="92" height="30" rx="1" fill="#f0f0f0" stroke="#bbb" stroke-width="0.5"/>
  <text x="658" y="449" text-anchor="middle" fill="#333" font-size="8" font-family="'Helvetica Neue', sans-serif">Client-Facing</text>

  <rect x="714" y="430" width="82" height="30" rx="1" fill="#f0f0f0" stroke="#bbb" stroke-width="0.5"/>
  <text x="755" y="449" text-anchor="middle" fill="#333" font-size="8" font-family="'Helvetica Neue', sans-serif">Security</text>

  <rect x="806" y="430" width="86" height="30" rx="1" fill="#f0f0f0" stroke="#bbb" stroke-width="0.5"/>
  <text x="849" y="449" text-anchor="middle" fill="#333" font-size="8" font-family="'Helvetica Neue', sans-serif">Maintenance</text>

  <rect x="510" y="470" width="186" height="30" rx="1" fill="#fafafa" stroke="#ddd" stroke-width="0.5"/>
  <text x="603" y="489" text-anchor="middle" fill="#888" font-size="7.5" font-family="'Helvetica Neue', sans-serif">Fleet Manager + Health Monitor</text>

  <rect x="706" y="470" width="186" height="30" rx="1" fill="#fafafa" stroke="#ddd" stroke-width="0.5"/>
  <text x="799" y="489" text-anchor="middle" fill="#888" font-size="7.5" font-family="'Helvetica Neue', sans-serif">ROS2 Bridge + Telemetry</text>

  <!-- Connector L2 → L0 -->
  <line x1="480" y1="522" x2="480" y2="555" stroke="#999" stroke-width="0.5" stroke-dasharray="3,2"/>
  <text x="495" y="542" fill="#aaa" font-size="7" font-family="'Helvetica Neue', sans-serif">on-chain settlement</text>

  <!-- ═══ LAYER 0: PROTOCOL ═══ -->
  <rect x="50" y="560" width="860" height="85" rx="2" fill="none" stroke="#1a1a1a" stroke-width="1.5"/>
  <rect x="50" y="560" width="860" height="2" fill="#1a1a1a"/>

  <text x="70" y="583" fill="#1a1a1a" font-size="10" letter-spacing="3" font-family="'Helvetica Neue', Helvetica, Arial, sans-serif" font-weight="500">L0  PROTOCOL</text>
  <text x="235" y="583" fill="#888" font-size="10" font-style="italic">Smart Contracts — Immutable Foundation — On-Chain</text>

  <rect x="70" y="598" width="140" height="28" rx="1" fill="#f0f0f0" stroke="#999" stroke-width="0.5"/>
  <text x="140" y="616" text-anchor="middle" fill="#333" font-size="8" font-family="'Courier New', monospace">Constitution.sol</text>

  <rect x="225" y="598" width="145" height="28" rx="1" fill="#f0f0f0" stroke="#999" stroke-width="0.5"/>
  <text x="297" y="616" text-anchor="middle" fill="#333" font-size="8" font-family="'Courier New', monospace">TreasuryManager.sol</text>

  <rect x="385" y="598" width="150" height="28" rx="1" fill="#f0f0f0" stroke="#999" stroke-width="0.5"/>
  <text x="460" y="616" text-anchor="middle" fill="#333" font-size="8" font-family="'Courier New', monospace">GovernanceEngine.sol</text>

  <rect x="550" y="598" width="140" height="28" rx="1" fill="#f0f0f0" stroke="#999" stroke-width="0.5"/>
  <text x="620" y="616" text-anchor="middle" fill="#333" font-size="8" font-family="'Courier New', monospace">WorkAllocation.sol</text>

  <rect x="705" y="598" width="185" height="28" rx="1" fill="#f0f0f0" stroke="#1a1a1a" stroke-width="0.5"/>
  <text x="797" y="616" text-anchor="middle" fill="#1a1a1a" font-size="8" font-family="'Courier New', monospace">EmergencyDAO.sol</text>

  <!-- Feedback loop -->
  <path d="M 920 555 L 935 555 L 935 120 L 920 120" stroke="#ccc" stroke-width="0.5" fill="none" stroke-dasharray="4,3"/>
  <polygon points="922,116 912,120 922,124" fill="#ccc"/>
  <text x="942" y="340" fill="#bbb" font-size="7" font-family="'Helvetica Neue', sans-serif" transform="rotate(90, 942, 340)">FEEDBACK LOOP</text>

  <!-- Bottom rule -->
  <line x1="40" y1="660" x2="920" y2="660" stroke="#1a1a1a" stroke-width="0.5"/>
  <text x="480" y="674" text-anchor="middle" fill="#bbb" font-size="7" font-family="'Helvetica Neue', sans-serif" letter-spacing="1">Operational cycle &lt;1h · Strategic cycle &lt;72h · All settlements on-chain</text>
</svg>
